<svg width="226" height="81" viewBox="0 0 226 81" fill="none" xmlns="http://www.w3.org/2000/svg">
<path d="M98.13 48.3017C96.9316 48.3017 95.8091 48.0316 94.7626 47.4915C94.2899 47.2552 93.8933 46.9767 93.5726 46.6559C93.3363 47.0442 93.0409 47.3902 92.6864 47.694C92.3826 47.9135 92.2138 48.0316 92.18 48.0485H91.5471V43.2379H92.5598C92.813 44.065 93.1675 44.8077 93.6232 45.466C94.6528 46.9345 95.9863 47.6687 97.6236 47.6687C98.5857 47.6687 99.3537 47.3818 99.9276 46.8079C100.502 46.234 100.788 45.466 100.788 44.5038C100.788 43.9468 100.62 43.4489 100.282 43.01C99.9614 42.5712 99.5563 42.1829 99.0668 41.8453C98.5773 41.5078 97.8937 41.0858 97.0159 40.5794C95.9019 39.9549 94.9989 39.3894 94.3068 38.883C93.6148 38.3766 93.024 37.7437 92.5345 36.9841C92.045 36.2077 91.8002 35.2962 91.8002 34.2497C91.8002 33.4226 92.0281 32.6799 92.4839 32.0216C92.9565 31.3464 93.657 30.8147 94.5853 30.4265C95.5137 30.0214 96.653 29.8188 98.0034 29.8188C98.9824 29.8188 99.9614 30.0973 100.94 30.6544C101.312 30.8569 101.683 31.127 102.054 31.4646C102.341 31.0257 102.637 30.6797 102.941 30.4265C103.244 30.2071 103.413 30.0889 103.447 30.072H104.08V34.8826H103.067C102.848 34.0724 102.519 33.3382 102.08 32.6799C101.675 32.0385 101.168 31.5068 100.561 31.0848C99.9698 30.6628 99.2862 30.4518 98.5098 30.4518C97.8515 30.4518 97.286 30.7134 96.8134 31.2367C96.3408 31.76 96.1045 32.4267 96.1045 33.2369C96.1045 33.8614 96.2817 34.4269 96.6362 34.9333C97.0075 35.4228 97.4548 35.8532 97.9781 36.2245C98.5182 36.5959 99.244 37.0432 100.156 37.5664C101.219 38.1741 102.08 38.7142 102.738 39.1869C103.396 39.6595 103.953 40.2503 104.409 40.9592C104.865 41.6512 105.093 42.453 105.093 43.3645C105.093 44.276 104.831 45.1115 104.308 45.8711C103.785 46.6138 103 47.2045 101.953 47.6434C100.907 48.0823 99.6322 48.3017 98.13 48.3017ZM104.718 47.5421L106.743 46.7825L113.706 29.9454H114.466L121.682 47.1623L122.948 47.5421V47.9219H119.909C119.032 47.9219 118.314 47.7278 117.757 47.3396C117.2 46.9345 116.787 46.4112 116.516 45.7698L115.225 42.7315H109.174L107.503 46.7825L109.402 47.5421V47.9219H104.718V47.5421ZM109.427 42.0985H114.972L112.187 35.4396L109.427 42.0985ZM123.699 47.5421L125.218 47.1623V30.9582L123.699 30.5784V30.1986H130.915V30.5784L129.396 30.9582V38.9083L135.599 31.338L133.7 30.5784V30.1986H138.511V30.5784L136.485 31.338L132.054 36.7816L138.891 47.1623L140.157 47.5421V47.9219H136.612C135.852 47.9219 135.202 47.7362 134.662 47.3649C134.139 46.9767 133.65 46.445 133.194 45.7698L129.396 39.9464V47.1623L130.915 47.5421V47.9219H123.699V47.5421ZM154.993 30.8316L153.6 30.5784V30.1986H156.639C157.533 30.1986 158.267 30.4012 158.841 30.8063C159.415 31.2114 159.82 31.7262 160.057 32.3507L163.88 42.0985L166.108 35.5662L164.234 30.8316L162.842 30.5784V30.1986H165.88C166.775 30.1986 167.5 30.4012 168.057 30.8063C168.614 31.1945 169.028 31.7093 169.298 32.3507L173.121 42.0985L176.767 31.338L174.868 30.5784V30.1986H179.552V30.5784L177.527 31.338L171.83 48.1751H171.07L166.513 36.6043L162.589 48.1751H161.829L154.993 30.8316ZM185.516 48.3017C183.423 48.3017 181.777 47.7109 180.579 46.5294C179.397 45.3309 178.806 43.6852 178.806 41.5922C178.806 39.4991 179.397 37.8618 180.579 36.6803C181.777 35.4818 183.423 34.8826 185.516 34.8826C187.609 34.8826 189.246 35.4818 190.428 36.6803C191.626 37.8618 192.226 39.4991 192.226 41.5922C192.226 43.6852 191.626 45.3309 190.428 46.5294C189.246 47.7109 187.609 48.3017 185.516 48.3017ZM185.516 47.7953C186.191 47.7953 186.757 47.3227 187.212 46.3774C187.685 45.4322 187.921 43.8371 187.921 41.5922C187.921 39.3472 187.685 37.7521 187.212 36.8069C186.757 35.8616 186.191 35.389 185.516 35.389C184.841 35.389 184.267 35.8616 183.794 36.8069C183.339 37.7521 183.111 39.3472 183.111 41.5922C183.111 43.8371 183.339 45.4322 183.794 46.3774C184.267 47.3227 184.841 47.7953 185.516 47.7953ZM200.969 48.3017C198.876 48.3017 197.231 47.7109 196.032 46.5294C194.851 45.3309 194.26 43.6852 194.26 41.5922C194.26 39.4991 194.851 37.8618 196.032 36.6803C197.231 35.4818 198.876 34.8826 200.969 34.8826C203.063 34.8826 204.7 35.4818 205.881 36.6803C207.08 37.8618 207.679 39.4991 207.679 41.5922C207.679 43.6852 207.08 45.3309 205.881 46.5294C204.7 47.7109 203.063 48.3017 200.969 48.3017ZM200.969 47.7953C201.645 47.7953 202.21 47.3227 202.666 46.3774C203.138 45.4322 203.375 43.8371 203.375 41.5922C203.375 39.3472 203.138 37.7521 202.666 36.8069C202.21 35.8616 201.645 35.389 200.969 35.389C200.294 35.389 199.72 35.8616 199.248 36.8069C198.792 37.7521 198.564 39.3472 198.564 41.5922C198.564 43.8371 198.792 45.4322 199.248 46.3774C199.72 47.3227 200.294 47.7953 200.969 47.7953ZM214.904 48.3017C213.908 48.3017 213.022 48.0485 212.245 47.5421C211.469 47.0189 210.853 46.2593 210.397 45.2634C209.941 44.2506 209.713 43.0269 209.713 41.5922C209.713 39.4316 210.211 37.7774 211.207 36.6296C212.22 35.465 213.579 34.8826 215.284 34.8826C216.094 34.8826 216.803 35.0514 217.41 35.389C217.664 35.5072 217.925 35.676 218.195 35.8954V30.9582L216.676 30.5784V30.1986H219.968C221.487 30.1986 222.246 30.9582 222.246 32.4773V47.1623L223.765 47.5421V47.9219H221.487C220.474 47.9219 219.689 47.6096 219.132 46.9851C218.896 46.7319 218.71 46.4112 218.575 46.023C218.356 46.445 218.077 46.8247 217.74 47.1623C216.98 47.9219 216.035 48.3017 214.904 48.3017ZM215.917 47.4155C216.541 47.4155 217.107 47.0779 217.613 46.4028C217.799 46.1496 217.993 45.812 218.195 45.39V36.655C218.01 36.4693 217.816 36.3005 217.613 36.1486C217.157 35.811 216.718 35.6422 216.296 35.6422C215.571 35.6422 215.005 36.0642 214.6 36.9081C214.212 37.7521 214.018 39.3134 214.018 41.5922C214.018 43.7696 214.195 45.2887 214.549 46.1496C214.921 46.9935 215.376 47.4155 215.917 47.4155Z" fill="url(#paint0_linear_136_153)"/>
<path d="M59.027 12.4583C58.4416 11.0506 57.702 9.72283 56.8253 8.49786C56.1856 7.60412 55.4717 6.76177 54.6979 5.98795C52.8588 4.14907 50.6629 2.66996 48.2242 1.65629C45.8711 0.67974 43.2925 0.140068 40.5854 0.140068C37.8783 0.140068 35.2996 0.67974 32.9466 1.65629C30.5079 2.66711 28.3119 4.14907 26.4729 5.98795C25.6962 6.76462 24.9851 7.60412 24.3455 8.49786C23.4688 9.72283 22.7292 11.0506 22.1438 12.4583C21.1672 14.8112 20.6274 17.3925 20.6274 20.0994C20.6274 20.2479 20.6274 20.3964 20.6332 20.542C20.6846 22.8349 21.1186 25.0307 21.8811 27.0723C21.3157 25.3476 21.0101 23.5145 21.0101 21.6156C21.0101 21.2444 21.0244 20.8789 21.0472 20.5134C21.0558 20.3764 21.0644 20.2422 21.0758 20.1051C21.3128 17.3582 22.1895 14.7826 23.563 12.5069C24.5711 10.8422 25.8447 9.33735 27.3324 8.04956C28.0892 7.39567 28.9002 6.79318 29.7569 6.25636C32.8581 4.31183 36.5847 3.17823 40.5882 3.17823C44.5947 3.17823 48.3184 4.31183 51.4196 6.25636C52.2792 6.79318 53.0873 7.39281 53.844 8.04956C55.3318 9.33735 56.6054 10.8422 57.6135 12.5069C58.9899 14.7826 59.8637 17.3582 60.1007 20.1051C60.1121 20.2393 60.1207 20.3764 60.1293 20.5134C60.1521 20.8789 60.1664 21.2473 60.1664 21.6156C60.1664 23.5145 59.8608 25.3476 59.2954 27.0723C60.055 25.0336 60.4919 22.8349 60.5433 20.542C60.5462 20.3935 60.549 20.2479 60.549 20.0994C60.549 17.3925 60.0093 14.8112 59.0327 12.4583H59.027Z" fill="url(#paint1_linear_136_153)"/>
<path d="M22.1073 52.3854C22.0217 52.6167 21.939 52.848 21.8621 53.0821C21.9476 52.848 22.0417 52.6138 22.1358 52.3854C22.1272 52.3854 22.1158 52.3854 22.1073 52.3854Z" fill="url(#paint2_linear_136_153)"/>
<path d="M60.5376 59.5699C60.4862 57.2913 60.055 55.1098 59.304 53.0824C59.8608 54.7957 60.1635 56.6146 60.1635 58.4992C60.1635 58.8704 60.1492 59.2359 60.1264 59.6014C60.1178 59.7413 60.1064 59.8783 60.095 60.0154C59.858 62.7623 58.9813 65.3379 57.6049 67.6136C56.5997 69.2755 55.3261 70.7774 53.8412 72.0652C53.0816 72.722 52.2677 73.3245 51.4082 73.8641C48.3127 75.803 44.5975 76.9337 40.6025 76.9366C40.5968 76.9366 40.5911 76.9366 40.5854 76.9366C40.5797 76.9366 40.574 76.9366 40.5683 76.9366C36.5732 76.9337 32.8581 75.803 29.7626 73.8641C28.9002 73.3245 28.0863 72.722 27.3296 72.0652C25.8447 70.7774 24.5711 69.2783 23.5659 67.6136C22.1895 65.3407 21.3128 62.7623 21.0758 60.0154C21.0644 59.8783 21.0529 59.7384 21.0444 59.6014C21.0215 59.2359 21.0072 58.8675 21.0072 58.4992C21.0072 56.6146 21.3071 54.7985 21.8668 53.0853C21.1158 55.1126 20.6846 57.2942 20.6332 59.5728C20.6303 59.7213 20.6274 59.8726 20.6274 60.0239C20.6274 62.7309 21.1672 65.3122 22.1438 67.665C22.7263 69.0699 23.4659 70.3948 24.3397 71.6169C24.9823 72.5135 25.6962 73.3587 26.4729 74.1354C28.3119 75.9743 30.5079 77.4534 32.9466 78.4671C35.2996 79.4436 37.8783 79.9833 40.5854 79.9833C43.2925 79.9833 45.8711 79.4436 48.2242 78.4671C50.6629 77.4562 52.8588 75.9743 54.6979 74.1354C55.4774 73.3559 56.1914 72.5135 56.831 71.6169C57.7048 70.3948 58.4416 69.0699 59.027 67.665C60.0036 65.3122 60.5433 62.7309 60.5433 60.0239C60.5433 59.8726 60.5433 59.7241 60.5376 59.5728V59.5699Z" fill="url(#paint3_linear_136_153)"/>
<path d="M12.981 21.6185C11.5732 22.2038 10.2453 22.9434 9.02026 23.82C8.12646 24.4596 7.2869 25.1735 6.51017 25.9473C4.67115 27.7862 3.19194 29.982 2.1782 32.4205C1.20158 34.7734 0.661865 37.3547 0.661865 40.0587C0.661865 42.7628 1.20158 45.3441 2.1782 47.697C3.18909 50.1355 4.67115 52.3342 6.51017 54.1702C7.2869 54.9469 8.12646 55.6579 9.02026 56.2975C10.2453 57.1741 11.5732 57.9136 12.981 58.499C15.334 59.4755 17.9155 60.0152 20.6227 60.0152C20.7711 60.0152 20.9196 60.0152 21.0653 60.0095C23.3583 59.9581 25.5543 59.5241 27.5961 58.7617C25.8713 59.3271 24.038 59.6326 22.139 59.6326C21.7678 59.6326 21.4022 59.6183 21.0367 59.5955C20.8996 59.5869 20.7654 59.5783 20.6284 59.5669C17.8813 59.3299 15.3055 58.4533 13.0296 57.0798C11.3647 56.0719 9.86267 54.7984 8.57193 53.3107C7.91799 52.554 7.31546 51.7431 6.7786 50.8865C4.83392 47.7855 3.70024 44.0592 3.70024 40.053C3.70024 36.0469 4.83392 32.3234 6.7786 29.2196C7.31546 28.3601 7.91514 27.552 8.57193 26.7953C9.85982 25.3077 11.3647 24.0342 13.0296 23.0262C15.3026 21.6499 17.8813 20.7761 20.6284 20.5391C20.7626 20.5277 20.8996 20.5192 21.0367 20.5106C21.4022 20.4877 21.7678 20.4735 22.139 20.4735C24.038 20.4735 25.8713 20.779 27.5961 21.3444C25.5572 20.5848 23.3583 20.1479 21.0653 20.0966C20.9168 20.0937 20.7711 20.0908 20.6227 20.0908C17.9155 20.0908 15.334 20.6305 12.981 21.6071V21.6185Z" fill="url(#paint4_linear_136_153)"/>
<path d="M60.093 20.1081C57.8142 20.1595 55.6325 20.5907 53.605 21.3416C55.3184 20.7848 57.1374 20.4822 59.0221 20.4822C59.3933 20.4822 59.7588 20.4964 60.1244 20.5193C60.2643 20.5278 60.4014 20.5393 60.5384 20.5507C63.2855 20.7877 65.8613 21.6643 68.1372 23.0406C69.7992 24.0457 71.3013 25.3192 72.5892 26.804C73.246 27.5636 73.8485 28.3774 74.3882 29.2369C76.3272 32.3321 77.458 36.047 77.4608 40.0446C77.4608 40.0503 77.4608 40.056 77.4608 40.0617C77.4608 40.0674 77.4608 40.0732 77.4608 40.0789C77.458 44.0736 76.3272 47.7885 74.3882 50.8866C73.8485 51.7489 73.246 52.5627 72.5892 53.3194C71.3013 54.8042 69.8021 56.0777 68.1372 57.0828C65.8642 58.4592 63.2855 59.3358 60.5384 59.5728C60.4014 59.5842 60.2614 59.5956 60.1244 59.6042C59.7588 59.627 59.3933 59.6413 59.0221 59.6413C57.1374 59.6413 55.3212 59.3415 53.6078 58.7818C55.6353 59.5328 57.817 59.964 60.093 60.0154C60.2414 60.0182 60.3928 60.0211 60.5441 60.0211C63.2513 60.0211 65.8328 59.4814 68.1858 58.5048C69.5908 57.9223 70.9158 57.1828 72.138 56.309C73.0346 55.6666 73.8799 54.9527 74.6566 54.1732C76.4956 52.3343 77.9749 50.1385 78.9886 47.7C79.9652 45.3471 80.5049 42.7658 80.5049 40.0617C80.5049 37.3577 79.9652 34.7764 78.9886 32.4235C77.9777 29.985 76.4956 27.7863 74.6566 25.9503C73.877 25.1707 73.0346 24.4569 72.138 23.8144C70.9158 22.9407 69.5908 22.204 68.1858 21.6186C65.8328 20.6421 63.2513 20.1024 60.5441 20.1024C60.3928 20.1024 60.2443 20.1024 60.093 20.1081Z" fill="url(#paint5_linear_136_153)"/>
<path d="M34.1067 7.50145C32.696 6.91894 31.2339 6.50491 29.749 6.25649C28.6638 6.07659 27.5673 5.98522 26.4679 5.98522C23.8664 5.98522 21.2678 6.49063 18.8262 7.50145C16.4732 8.47514 14.2658 9.91713 12.3525 11.8303C10.4393 13.7434 8.99718 15.9506 8.02341 18.3035C7.01252 20.7448 6.50708 23.3433 6.50708 25.9446C6.50708 27.041 6.59845 28.1404 6.77836 29.2254C7.02394 30.7102 7.44087 32.1722 8.02341 33.5828C8.99718 35.9385 10.4393 38.1457 12.3554 40.0589C12.461 40.1645 12.5667 40.2673 12.6724 40.3672C14.3286 41.952 16.1905 43.197 18.1723 44.1021C16.5531 43.2826 15.0397 42.2033 13.6975 40.8612C13.4348 40.5985 13.1864 40.3301 12.9436 40.056C12.8523 39.9532 12.7637 39.8504 12.6752 39.7476C10.899 37.6375 9.6968 35.1961 9.06 32.6148C8.59453 30.7245 8.43176 28.7628 8.57169 26.7983C8.64308 25.8018 8.79157 24.8024 9.01716 23.8144C9.83673 20.2451 11.6672 16.8101 14.5 13.9775C17.3327 11.145 20.768 9.31178 24.3376 8.49513C25.3256 8.26955 26.3222 8.11821 27.3188 8.04968C29.2807 7.90977 31.2453 8.07253 33.1357 8.53796C35.7172 9.17472 38.1588 10.3768 40.2662 12.1529C40.369 12.2414 40.4718 12.3299 40.5746 12.4185C40.8488 12.6612 41.1172 12.9125 41.3799 13.1723C42.7221 14.5143 43.8043 16.0277 44.6211 17.6467C43.7158 15.6679 42.4708 13.8033 40.8859 12.1472C40.7831 12.0416 40.6803 11.9359 40.5775 11.8303C38.6642 9.91713 36.4568 8.47229 34.1009 7.49859L34.1067 7.50145Z" fill="url(#paint6_linear_136_153)"/>
<path d="M68.4885 39.7475C66.8437 38.1741 64.9932 36.9349 63.0286 36.0326C64.6334 36.8492 66.1326 37.9229 67.4662 39.2535C67.7289 39.5162 67.9774 39.7846 68.2201 40.0587C68.3115 40.1615 68.4029 40.2672 68.4914 40.3728C70.2647 42.483 71.4669 44.9243 72.1037 47.5056C72.5692 49.3931 72.7291 51.3547 72.5892 53.3135C72.5178 54.3158 72.3693 55.3152 72.1409 56.306C71.3213 59.8667 69.4937 63.2932 66.6723 66.1201C66.6695 66.1229 66.6638 66.1286 66.6609 66.1315C66.6581 66.1343 66.6524 66.1401 66.6495 66.1429C63.8224 68.9669 60.3957 70.7944 56.8347 71.611C55.8438 71.8395 54.8444 71.9879 53.842 72.0593C51.8802 72.1992 49.9213 72.0393 48.0337 71.5739C45.4522 70.94 43.0107 69.7379 40.9004 67.9618C40.7947 67.8733 40.689 67.7819 40.5862 67.6905C40.3121 67.4478 40.0437 67.1966 39.781 66.9367C38.4474 65.6032 37.3765 64.107 36.5598 62.5023C37.4622 64.4668 38.6987 66.3142 40.275 67.9618C40.3778 68.0703 40.4834 68.1788 40.5891 68.2845C42.5024 70.1976 44.7098 71.6424 47.0656 72.6161C48.4706 73.1986 49.9298 73.6127 51.4119 73.8582C52.4999 74.0381 53.6022 74.1295 54.7016 74.1295C57.3031 74.1295 59.9017 73.6241 62.3432 72.6133C64.6963 71.6396 66.9037 70.1976 68.8169 68.2845C70.7302 66.3713 72.1723 64.1641 73.146 61.8112C74.1569 59.3699 74.6624 56.7714 74.6624 54.1702C74.6624 53.068 74.571 51.9686 74.3911 50.8807C74.1455 49.3988 73.7314 47.9397 73.1489 46.5348C72.1751 44.1791 70.733 41.9718 68.8169 40.0587C68.7113 39.9531 68.6027 39.8474 68.4942 39.7446L68.4885 39.7475Z" fill="url(#paint7_linear_136_153)"/>
<path d="M8.02341 46.5376C7.44087 47.9481 7.0268 49.4101 6.77836 50.8949C6.59845 51.98 6.50708 53.0764 6.50708 54.1758C6.50708 56.7771 7.01252 59.3755 8.02341 61.8169C8.99718 64.1697 10.4393 66.377 12.3525 68.2901C14.2658 70.2032 16.4732 71.6452 18.8262 72.6189C21.2678 73.6297 23.8664 74.1351 26.4679 74.1351C27.5644 74.1351 28.6638 74.0437 29.749 73.8638C31.2339 73.6183 32.696 73.2014 34.1067 72.6189C36.4625 71.6452 38.6699 70.2032 40.5832 68.2872C40.6889 68.1816 40.7917 68.0759 40.8916 67.9703C42.4765 66.3141 43.7215 64.4524 44.6268 62.4707C43.8072 64.0898 42.7278 65.6031 41.3856 66.9452C41.1229 67.2079 40.8545 67.4563 40.5804 67.699C40.4775 67.7904 40.3747 67.8789 40.2719 67.9674C38.1616 69.7435 35.7201 70.9456 33.1415 71.5824C31.251 72.0478 29.2892 72.2106 27.3246 72.0706C26.3279 71.9993 25.3285 71.8508 24.3433 71.6252C20.7738 70.8057 17.3384 68.9754 14.5057 66.1428C11.6729 63.3102 9.84245 59.8752 9.02288 56.3059C8.79729 55.3179 8.64594 54.3214 8.57741 53.3249C8.43748 51.3632 8.60025 49.3987 9.06571 47.5084C9.70252 44.9271 10.9047 42.4857 12.6809 40.3756C12.7695 40.2728 12.858 40.17 12.9465 40.0672C13.1892 39.7931 13.4377 39.5247 13.7004 39.262C15.0425 37.9199 16.556 36.8377 18.1751 36.0211C16.1962 36.9262 14.3315 38.1712 12.6752 39.7559C12.5696 39.8587 12.4639 39.9615 12.3582 40.0643C10.445 41.9775 9.00003 44.1847 8.02626 46.5404L8.02341 46.5376Z" fill="url(#paint8_linear_136_153)"/>
<path d="M40.2689 12.1554C38.6954 13.8001 37.4561 15.6504 36.5537 17.6149C37.3704 16.0102 38.4441 14.5111 39.7749 13.1776C40.0376 12.9149 40.306 12.6637 40.5801 12.4238C40.6829 12.3324 40.7886 12.2411 40.8943 12.1525C43.0046 10.3793 45.4461 9.1772 48.0276 8.54044C49.9152 8.07501 51.877 7.91511 53.8359 8.05502C54.8383 8.12641 55.8377 8.27489 56.8286 8.50332C60.3896 9.32282 63.8163 11.1503 66.6434 13.9714C66.6463 13.9743 66.652 13.98 66.6548 13.9829C66.6577 13.9857 66.6634 13.9914 66.6662 13.9943C69.4904 16.8211 71.3152 20.2476 72.1348 23.8083C72.3632 24.7992 72.5117 25.7986 72.5831 26.8008C72.723 28.7625 72.5631 30.7213 72.0976 32.6087C71.4637 35.19 70.2615 37.6314 68.4853 39.7415C68.3967 39.8472 68.3054 39.9528 68.214 40.0556C67.9713 40.3297 67.7228 40.5982 67.4601 40.8609C66.1265 42.1943 64.6302 43.2651 63.0253 44.0818C64.99 43.1795 66.8376 41.9402 68.4853 40.3669C68.5938 40.2641 68.7023 40.1584 68.808 40.0528C70.7212 38.1397 72.1662 35.9324 73.1399 33.5767C73.7225 32.1718 74.1365 30.7127 74.3821 29.2308C74.562 28.1428 74.6534 27.0407 74.6534 25.9413C74.6534 23.34 74.148 20.7416 73.1371 18.3002C72.1633 15.9474 70.7212 13.7402 68.808 11.827C66.8947 9.9139 64.6873 8.47191 62.3343 7.49822C59.8927 6.4874 57.2941 5.98199 54.6926 5.98199C53.5903 5.98199 52.4909 6.07337 51.4029 6.25326C49.9209 6.49882 48.4617 6.91286 47.0567 7.49536C44.7008 8.46906 42.4934 9.91104 40.5801 11.827C40.4745 11.9327 40.3688 12.0412 40.266 12.1497L40.2689 12.1554Z" fill="url(#paint9_linear_136_153)"/>
<path d="M38.3363 54.3587C38.3221 54.2673 38.3078 54.1731 38.2935 54.0817C38.2535 53.7762 38.2307 53.465 38.2307 53.1452C38.2307 53.3079 38.2221 53.4678 38.2136 53.6277C38.1993 53.839 38.1764 54.0475 38.1422 54.2531C37.7938 56.4203 36.4459 58.2535 34.5869 59.2643C34.7326 59.31 34.881 59.3528 35.0295 59.3957C35.555 59.5441 36.089 59.6726 36.6287 59.7783C37.7424 58.8817 38.4534 57.5111 38.4534 55.9692C38.4534 57.374 38.1993 58.7189 37.7367 59.9639C38.6476 60.0895 39.5785 60.158 40.5266 60.158C41.5318 60.158 42.5198 60.0838 43.485 59.941C40.8464 59.2586 38.8104 57.0771 38.3363 54.3587Z" fill="#DDB691"/>
<path d="M41.711 36.992C40.8686 39.2678 40.4203 40.9068 40.0205 43.1169C40.0091 43.1397 39.9977 43.1626 39.9862 43.1854C39.9805 43.1997 39.9719 43.214 39.9634 43.2254C39.9177 43.2025 39.872 43.1769 39.8263 43.154C39.8235 43.1483 39.8206 43.1426 39.8178 43.134C39.4836 42.5058 39.1124 41.8948 38.7098 41.3037C38.6812 41.2637 38.6555 41.2266 38.627 41.1866C37.9245 40.1387 37.5161 38.8795 37.5161 37.5231C37.5161 34.6534 39.3523 32.2121 41.9138 31.3098C40.2689 31.5525 38.8326 32.4291 37.8531 33.6826C37.8645 33.5313 37.8731 33.3828 37.8731 33.2286C37.8731 31.0699 36.7337 29.1768 35.0232 28.1174C35.026 28.1203 35.0289 28.1231 35.0317 28.126C36.9593 30.2276 37.5361 33.0887 36.8136 35.6443C36.7965 35.7014 36.7794 35.7585 36.7622 35.8185C36.6509 36.2011 36.5766 36.5951 36.5395 37.0034C36.5224 37.1948 36.5109 37.3889 36.5109 37.5831C36.5109 37.9857 36.5509 38.3798 36.6223 38.7624C35.8284 37.9514 34.9546 37.2033 34.0066 36.5352C33.9352 36.4866 33.8609 36.4381 33.7895 36.3895C33.6239 36.2753 33.4583 36.164 33.2898 36.0555C33.2727 36.044 33.2555 36.0355 33.2384 36.024C32.3018 35.393 31.3851 34.7305 30.4941 34.0338C30.4113 33.9739 30.3314 33.911 30.2543 33.8425C29.883 33.5227 29.5689 33.1287 29.3405 32.6632C28.5666 31.0985 28.9892 29.2481 30.2486 28.0946C29.3062 28.9283 28.7094 30.1476 28.7094 31.5039C28.7094 31.9237 28.7665 32.3291 28.875 32.7175C29.0406 33.32 29.3291 33.8739 29.7089 34.3479C27.7385 33.8397 25.6881 34.1195 23.9605 35.0475C22.6155 35.7699 21.4675 36.8807 20.7051 38.3169C21.8873 36.1354 24.1918 34.6506 26.8447 34.642C26.8532 34.642 26.8618 34.642 26.8704 34.642C26.8875 34.642 26.9075 34.642 26.9246 34.642C28.4153 34.6506 29.8859 34.9761 31.2395 35.5815C31.3308 35.6214 31.4194 35.6614 31.5107 35.7042C32.5873 36.2239 33.5868 36.9263 34.4492 37.7973C35.0574 38.4112 35.6029 39.0993 36.0769 39.8589C37.162 41.7691 38.1272 43.7679 38.9611 45.8524C39.4579 47.0916 39.9063 48.3594 40.3061 49.6558C40.4032 49.9699 40.4945 50.2897 40.5859 50.6066C40.9343 51.6346 41.4112 52.5854 41.9994 53.4421C42.9018 54.7584 44.0555 55.852 45.3748 56.6801C44.461 55.952 43.6414 55.0725 42.9589 54.0531C42.9075 53.9789 42.8561 53.9018 42.8076 53.8275C42.7933 53.8047 42.779 53.7847 42.7648 53.7619C42.7391 53.7219 42.7162 53.6791 42.6905 53.6391C42.642 53.562 42.5963 53.482 42.5506 53.4049C42.365 53.0851 42.1965 52.7625 42.0451 52.4312C41.1028 50.3896 40.7944 48.1824 41.0714 46.0608C41.1713 45.2899 41.3512 44.5303 41.6025 43.7936C41.6196 43.7422 41.6396 43.688 41.6596 43.6366C41.9795 42.7457 42.4078 41.8891 42.9389 41.0895C43.8213 39.7646 44.9893 38.5968 46.4257 37.6945C47.7792 36.8435 49.2413 36.3039 50.7262 36.0612C50.8433 36.0412 50.9604 36.0269 51.0746 36.0126C51.7171 35.9041 52.3168 35.7014 52.8679 35.4187C53.3391 35.176 53.7703 34.879 54.1558 34.5335C55.5951 33.2457 56.4061 31.3098 56.1833 29.2653C56.4061 31.424 55.3466 33.4456 53.5933 34.5335C52.9793 34.9133 52.2825 35.1788 51.5258 35.2959C51.363 35.3216 51.2003 35.3387 51.0403 35.3473C51.0061 35.3473 50.9718 35.353 50.9375 35.353C50.0352 35.3987 49.1271 35.5529 48.2247 35.8213C48.219 35.8213 48.2133 35.8242 48.2076 35.827C47.0625 36.1697 46.0116 36.6751 45.0692 37.3118C45.0635 37.3175 45.055 37.3204 45.0493 37.3261C44.9636 37.3832 44.8836 37.4432 44.8008 37.5031C44.7294 37.5545 44.6552 37.6088 44.5838 37.6602C44.5152 37.7116 44.4467 37.7658 44.3782 37.8172C44.3154 37.8658 44.2525 37.9143 44.1926 37.9629C44.1754 37.9771 44.1583 37.9914 44.1412 38.0028C43.5558 38.4768 43.0218 38.968 42.5334 39.4848C43.5329 37.4289 44.1697 35.1103 44.3382 32.9259C44.3982 32.1521 44.3982 31.364 44.3382 30.5674V30.6016C44.2839 29.8678 44.084 29.1825 43.7671 28.5686C43.3559 27.7662 42.7476 27.0895 42.008 26.5926C41.4283 26.2014 40.7715 25.9244 40.0662 25.7874C39.6179 25.6989 39.1495 25.6703 38.6726 25.7046C38.0758 25.7474 37.5076 25.8902 36.9878 26.11C37.1249 26.0786 37.2648 26.0529 37.4076 26.033C38.6355 25.8645 39.8178 26.1672 40.7744 26.7982C41.4997 27.2779 42.0965 27.9461 42.4849 28.7456C42.542 28.8684 42.5963 28.994 42.6477 29.1197C42.7933 29.4823 42.9132 29.8535 43.0018 30.2304C43.3587 31.7381 42.8419 33.9253 42.5049 34.8419C42.128 35.8727 41.9309 36.3838 41.7082 36.9892L41.711 36.992Z" fill="#DDB691"/>
<path d="M48.316 44.3362C48.2189 44.3333 48.1218 44.3276 48.0247 44.3276C47.9276 44.3276 47.8305 44.3305 47.7335 44.3362C44.8436 44.4818 42.5219 46.789 42.3535 49.6758C42.3478 49.7872 42.342 49.9014 42.342 50.0156C42.342 51.5461 42.9474 52.9367 43.9326 53.9589C43.5585 53.2765 43.3187 52.5112 43.2473 51.686C42.9788 48.5993 45.1834 45.8638 48.2189 45.4441C48.316 45.4298 48.4159 45.4184 48.5159 45.4098C49.7295 45.3042 50.9003 45.4926 51.9626 45.9152C54.4156 46.8918 56.2718 49.1218 56.6601 51.883C56.1061 47.717 52.6051 44.4818 48.3217 44.339L48.316 44.3362Z" fill="#DDB691"/>
<path d="M39.861 50.3725C39.8382 50.2611 39.8153 50.1469 39.7868 50.0355C39.7611 49.927 39.7297 49.8214 39.6982 49.7129C39.3184 48.408 38.6131 47.2801 37.6936 46.392C35.8888 44.6531 33.2617 43.8479 30.6459 44.4875C27.085 45.3584 24.7376 48.6193 24.889 52.1457C24.8376 49.0847 26.9022 46.2835 30.0006 45.5268C33.513 44.6674 37.0568 46.7461 38.042 50.1926C38.0791 50.3611 38.1219 50.5267 38.1648 50.6923C38.496 51.9572 38.9872 53.1422 39.6097 54.233C40.9176 56.5145 42.808 58.3733 45.0411 59.6497C45.875 59.4584 46.6917 59.2128 47.4827 58.9216C43.8475 57.4625 40.949 54.3729 39.8582 50.3725H39.861Z" fill="#DDB691"/>
<path d="M29.5307 45.6467C26.3324 46.075 24.2563 48.9875 24.8931 52.1513C28.0914 51.723 30.1675 48.8105 29.5307 45.6467Z" fill="#7F9391"/>
<path d="M46.925 36.3038C47.856 39.3934 51.0628 40.981 54.0841 39.8474C53.1532 36.7578 49.9463 35.1702 46.925 36.3038Z" fill="#7F9391"/>
<path d="M51.9948 23.5832C50.4385 25.5163 50.8268 28.2432 52.8572 29.6681C54.4135 27.735 54.0251 25.008 51.9948 23.5832Z" fill="#7F9391"/>
<path d="M45.8865 47.2288C46.3491 49.3647 48.4251 50.6096 50.5269 50.01C50.0642 47.8741 47.9882 46.6292 45.8865 47.2288Z" fill="#7F9391"/>
<path d="M45.3166 44.2421C47.3613 43.474 48.2893 41.2382 47.3898 39.2451C45.3452 40.0132 44.4171 42.249 45.3166 44.2421Z" fill="#7F9391"/>
<path d="M55.6211 46.3549C56.4007 48.3965 58.6452 49.3102 60.6299 48.3965C59.8503 46.3549 57.6058 45.4412 55.6211 46.3549Z" fill="#7F9391"/>
<path d="M47.5391 36.7522C50.232 34.9733 50.8316 31.4469 48.8784 28.877C46.1855 30.6559 45.5859 34.1824 47.5391 36.7522Z" fill="#7F9391"/>
<path d="M51.0251 35.3649C54.2491 35.1993 56.5565 32.4695 56.1824 29.2629C52.9584 29.4285 50.651 32.1583 51.0251 35.3649Z" fill="#7F9391"/>
<path d="M43.7231 20.2394C40.8989 22.7293 40.7732 26.9011 43.4432 29.5566C46.2674 27.0667 46.3931 22.895 43.7231 20.2394Z" fill="#7F9391"/>
<path d="M50.3753 44.65C49.9783 48.4962 52.7883 51.7343 56.6519 51.8799C57.0488 48.0337 54.2389 44.7956 50.3753 44.65Z" fill="#7F9391"/>
<path d="M54.2302 37.6118C55.6095 39.8333 58.4508 40.3987 60.5754 38.8796C59.1962 36.6581 56.3548 36.0927 54.2302 37.6118Z" fill="#7F9391"/>
<path d="M50.3752 44.6502C53.2851 46.1892 56.7376 45.0042 58.0854 41.9975C55.1755 40.4584 51.7231 41.6463 50.3752 44.6502Z" fill="#7F9391"/>
<path d="M36.9905 26.1128C37.9385 29.1967 41.154 30.7671 44.1695 29.6164C43.2214 26.5326 40.006 24.9621 36.9905 26.1128Z" fill="#7F9391"/>
<path d="M27.8098 34.6647C24.7714 33.5768 21.5902 35.2101 20.7021 38.3139C23.7405 39.4018 26.9217 37.7685 27.8098 34.6647Z" fill="#7F9391"/>
<path d="M31.8415 37.4516C29.6142 36.6036 27.2411 37.7629 26.5415 40.0415C28.7689 40.8895 31.1419 39.7302 31.8415 37.4516Z" fill="#7F9391"/>
<path d="M35.6456 40.7468C33.8751 39.973 31.9105 40.8182 31.2537 42.6371C33.0241 43.4109 34.9888 42.5657 35.6456 40.7468Z" fill="#7F9391"/>
<path d="M27.7845 32.6745C27.7446 30.4702 25.9312 28.8312 23.7324 29.0139C23.7724 31.2183 25.5857 32.8573 27.7845 32.6745Z" fill="#7F9391"/>
<path d="M26.0418 46.0867C24.4255 45.33 22.5865 46.0667 21.9382 47.7285C23.5545 48.4852 25.3935 47.7485 26.0418 46.0867Z" fill="#7F9391"/>
<path d="M35.5195 36.421C36.182 34.7648 35.3453 32.9716 33.6462 32.4177C32.9837 34.0738 33.8204 35.867 35.5195 36.421Z" fill="#7F9391"/>
<path d="M35.7827 46.8118C33.424 46.1836 31.1281 47.6142 30.6541 50.007C33.0128 50.6352 35.3087 49.2047 35.7827 46.8118Z" fill="#7F9391"/>
<path d="M23.9258 42.2633C26.8128 40.8184 30.1682 42.0577 31.4189 45.033C28.5319 46.4778 25.1765 45.2386 23.9258 42.2633Z" fill="#7F9391"/>
<path d="M30.2458 28.0888C32.833 29.545 33.2442 32.4433 31.1681 34.5649C28.581 33.1086 28.1697 30.2103 30.2458 28.0888Z" fill="#7F9391"/>
<path d="M41.9085 31.3041C41.7086 33.4913 39.7868 34.9847 37.6194 34.6421C37.8193 32.4548 39.7411 30.9614 41.9085 31.3041Z" fill="#7F9391"/>
<path d="M35.0175 28.1119C37.1678 28.5602 38.4328 30.6361 37.8474 32.7519C35.6971 32.3036 34.4321 30.2277 35.0175 28.1119Z" fill="#7F9391"/>
<path d="M36.8662 20.3194C36.4978 22.775 38.2026 24.9337 40.6785 25.1393C41.0468 22.6836 39.342 20.5249 36.8662 20.3194Z" fill="#7F9391"/>
<path d="M26.7905 25.4162C28.047 24.5168 29.7261 24.8508 30.5428 26.1643C29.2863 27.0638 27.6072 26.7297 26.7905 25.4162Z" fill="#7F9391"/>
<path d="M46.8052 20.9873C46.214 23.3973 47.7161 25.7044 50.1605 26.1356C50.7516 23.7256 49.2496 21.4185 46.8052 20.9873Z" fill="#7F9391"/>
<path d="M35.0487 20.7446C32.2187 22.2979 31.3335 25.7616 33.0669 28.4856C35.8968 26.9323 36.782 23.4687 35.0487 20.7446Z" fill="#7F9391"/>
<defs>
<linearGradient id="paint0_linear_136_153" x1="90.6609" y1="39.4219" x2="225.221" y2="39.4219" gradientUnits="userSpaceOnUse">
<stop stop-color="#F3DEBB"/>
<stop offset="0.15" stop-color="#F3DEBB"/>
<stop offset="0.35" stop-color="#E5C5A1"/>
<stop offset="0.61" stop-color="#D5A983"/>
<stop offset="0.72" stop-color="#A57B5D"/>
<stop offset="0.84" stop-color="#D5A983"/>
<stop offset="1" stop-color="#F3DEBB"/>
</linearGradient>
<linearGradient id="paint1_linear_136_153" x1="20.6274" y1="13.6062" x2="60.549" y2="13.6062" gradientUnits="userSpaceOnUse">
<stop stop-color="#F3DEBB"/>
<stop offset="0.15" stop-color="#F3DEBB"/>
<stop offset="0.35" stop-color="#E5C5A1"/>
<stop offset="0.61" stop-color="#D5A983"/>
<stop offset="0.72" stop-color="#A57B5D"/>
<stop offset="0.84" stop-color="#D5A983"/>
<stop offset="1" stop-color="#F3DEBB"/>
</linearGradient>
<linearGradient id="paint2_linear_136_153" x1="21.8621" y1="52.7338" x2="22.1358" y2="52.7338" gradientUnits="userSpaceOnUse">
<stop stop-color="#F3DEBB"/>
<stop offset="0.15" stop-color="#F3DEBB"/>
<stop offset="0.35" stop-color="#E5C5A1"/>
<stop offset="0.61" stop-color="#D5A983"/>
<stop offset="0.72" stop-color="#A57B5D"/>
<stop offset="0.84" stop-color="#D5A983"/>
<stop offset="1" stop-color="#F3DEBB"/>
</linearGradient>
<linearGradient id="paint3_linear_136_153" x1="20.6274" y1="66.5329" x2="60.5433" y2="66.5329" gradientUnits="userSpaceOnUse">
<stop stop-color="#F3DEBB"/>
<stop offset="0.15" stop-color="#F3DEBB"/>
<stop offset="0.35" stop-color="#E5C5A1"/>
<stop offset="0.61" stop-color="#D5A983"/>
<stop offset="0.72" stop-color="#A57B5D"/>
<stop offset="0.84" stop-color="#D5A983"/>
<stop offset="1" stop-color="#F3DEBB"/>
</linearGradient>
<linearGradient id="paint4_linear_136_153" x1="0.661865" y1="40.053" x2="27.5961" y2="40.053" gradientUnits="userSpaceOnUse">
<stop stop-color="#F3DEBB"/>
<stop offset="0.15" stop-color="#F3DEBB"/>
<stop offset="0.35" stop-color="#E5C5A1"/>
<stop offset="0.61" stop-color="#D5A983"/>
<stop offset="0.72" stop-color="#A57B5D"/>
<stop offset="0.84" stop-color="#D5A983"/>
<stop offset="1" stop-color="#F3DEBB"/>
</linearGradient>
<linearGradient id="paint5_linear_136_153" x1="53.605" y1="40.0617" x2="80.5049" y2="40.0617" gradientUnits="userSpaceOnUse">
<stop stop-color="#F3DEBB"/>
<stop offset="0.15" stop-color="#F3DEBB"/>
<stop offset="0.35" stop-color="#E5C5A1"/>
<stop offset="0.61" stop-color="#D5A983"/>
<stop offset="0.72" stop-color="#A57B5D"/>
<stop offset="0.84" stop-color="#D5A983"/>
<stop offset="1" stop-color="#F3DEBB"/>
</linearGradient>
<linearGradient id="paint6_linear_136_153" x1="6.50708" y1="25.0437" x2="44.6211" y2="25.0437" gradientUnits="userSpaceOnUse">
<stop stop-color="#F3DEBB"/>
<stop offset="0.15" stop-color="#F3DEBB"/>
<stop offset="0.35" stop-color="#E5C5A1"/>
<stop offset="0.61" stop-color="#D5A983"/>
<stop offset="0.72" stop-color="#A57B5D"/>
<stop offset="0.84" stop-color="#D5A983"/>
<stop offset="1" stop-color="#F3DEBB"/>
</linearGradient>
<linearGradient id="paint7_linear_136_153" x1="36.5598" y1="55.081" x2="74.6624" y2="55.081" gradientUnits="userSpaceOnUse">
<stop stop-color="#F3DEBB"/>
<stop offset="0.15" stop-color="#F3DEBB"/>
<stop offset="0.35" stop-color="#E5C5A1"/>
<stop offset="0.61" stop-color="#D5A983"/>
<stop offset="0.72" stop-color="#A57B5D"/>
<stop offset="0.84" stop-color="#D5A983"/>
<stop offset="1" stop-color="#F3DEBB"/>
</linearGradient>
<linearGradient id="paint8_linear_136_153" x1="6.50708" y1="55.0781" x2="44.6268" y2="55.0781" gradientUnits="userSpaceOnUse">
<stop stop-color="#F3DEBB"/>
<stop offset="0.15" stop-color="#F3DEBB"/>
<stop offset="0.35" stop-color="#E5C5A1"/>
<stop offset="0.61" stop-color="#D5A983"/>
<stop offset="0.72" stop-color="#A57B5D"/>
<stop offset="0.84" stop-color="#D5A983"/>
<stop offset="1" stop-color="#F3DEBB"/>
</linearGradient>
<linearGradient id="paint9_linear_136_153" x1="36.5537" y1="25.0319" x2="74.6534" y2="25.0319" gradientUnits="userSpaceOnUse">
<stop stop-color="#F3DEBB"/>
<stop offset="0.15" stop-color="#F3DEBB"/>
<stop offset="0.35" stop-color="#E5C5A1"/>
<stop offset="0.61" stop-color="#D5A983"/>
<stop offset="0.72" stop-color="#A57B5D"/>
<stop offset="0.84" stop-color="#D5A983"/>
<stop offset="1" stop-color="#F3DEBB"/>
</linearGradient>
</defs>
</svg>
