<svg width="273" height="70" viewBox="0 0 273 70" fill="none" xmlns="http://www.w3.org/2000/svg">
<path d="M92.8424 47.9999C91.124 47.9999 89.5144 47.6126 88.0138 46.8381C87.3361 46.4992 86.7673 46.0999 86.3075 45.64C85.9686 46.1967 85.5451 46.6929 85.0368 47.1285C84.6011 47.4432 84.3591 47.6126 84.3107 47.6368H83.403V40.7388H84.8553C85.2183 41.9248 85.7266 42.9897 86.3801 43.9337C87.8565 46.0394 89.7686 47.0922 92.1163 47.0922C93.4959 47.0922 94.5972 46.6808 95.4201 45.8578C96.243 45.0349 96.6545 43.9337 96.6545 42.5541C96.6545 41.7553 96.4125 41.0413 95.9284 40.412C95.4685 39.7827 94.8877 39.2261 94.1857 38.742C93.4838 38.2579 92.5036 37.6528 91.245 36.9267C89.6476 36.0312 88.3527 35.2204 87.3603 34.4943C86.368 33.7681 85.5209 32.8605 84.8189 31.7714C84.117 30.658 83.7661 29.351 83.7661 27.8504C83.7661 26.6644 84.0928 25.5994 84.7463 24.6555C85.424 23.6873 86.4285 22.9249 87.7597 22.3682C89.0909 21.7874 90.7246 21.4969 92.6609 21.4969C94.0647 21.4969 95.4685 21.8963 96.8723 22.695C97.4048 22.9854 97.9373 23.3727 98.4698 23.8568C98.8812 23.2275 99.3048 22.7313 99.7405 22.3682C100.176 22.0536 100.418 21.8842 100.467 21.86H101.374V28.758H99.922C99.6074 27.5962 99.1354 26.5434 98.5061 25.5994C97.9252 24.6797 97.1991 23.9173 96.3278 23.3122C95.4806 22.7071 94.5004 22.4046 93.387 22.4046C92.4431 22.4046 91.6323 22.7797 90.9546 23.53C90.2769 24.2803 89.938 25.2364 89.938 26.3981C89.938 27.2937 90.1921 28.1045 90.7004 28.8306C91.2329 29.5325 91.8743 30.1497 92.6246 30.6822C93.3991 31.2147 94.4399 31.8561 95.7469 32.6064C97.2717 33.4777 98.5061 34.2522 99.45 34.9299C100.394 35.6076 101.193 36.4548 101.846 37.4713C102.5 38.4636 102.826 39.6133 102.826 40.9203C102.826 42.2273 102.451 43.4254 101.701 44.5145C100.951 45.5795 99.8252 46.4266 98.3246 47.0559C96.8239 47.6852 94.9966 47.9999 92.8424 47.9999Z" fill="#D1AE8B"/>
<path d="M102.289 46.9107L105.193 45.8215L115.177 21.6784H116.267L126.614 46.3661L128.429 46.9107V47.4553H124.072C122.814 47.4553 121.785 47.1769 120.986 46.6203C120.188 46.0394 119.595 45.2891 119.207 44.3693L117.356 40.0127H108.679L106.283 45.8215L109.005 46.9107V47.4553H102.289V46.9107ZM109.042 39.105H116.993L112.999 29.5567L109.042 39.105Z" fill="#D1AE8B"/>
<path d="M129.507 46.9107L131.685 46.3661V23.1307L129.507 22.5861V22.0415H139.854V22.5861L137.675 23.1307V34.5306L146.57 23.6752L143.847 22.5861V22.0415H150.745V22.5861L147.841 23.6752L141.487 31.4809L151.29 46.3661L153.105 46.9107V47.4553H148.022C146.933 47.4553 146.001 47.189 145.227 46.6566C144.477 46.0999 143.775 45.3375 143.121 44.3693L137.675 36.0191V46.3661L139.854 46.9107V47.4553H129.507V46.9107Z" fill="#D1AE8B"/>
<path d="M174.379 22.9491L172.382 22.5861V22.0415H176.739C178.022 22.0415 179.075 22.3319 179.898 22.9128C180.721 23.4937 181.302 24.2319 181.64 25.1275L187.122 39.105L190.317 29.7382L187.631 22.9491L185.634 22.5861V22.0415H189.991C191.273 22.0415 192.314 22.3319 193.113 22.9128C193.912 23.4695 194.505 24.2077 194.892 25.1275L200.374 39.105L205.602 23.6752L202.879 22.5861V22.0415H209.596V22.5861L206.691 23.6752L198.522 47.8183H197.433L190.898 31.2268L185.271 47.8183H184.182L174.379 22.9491Z" fill="#D1AE8B"/>
<path d="M218.147 47.9999C215.146 47.9999 212.786 47.1527 211.068 45.4585C209.373 43.74 208.526 41.3802 208.526 38.3789C208.526 35.3777 209.373 33.0299 211.068 31.3357C212.786 29.6172 215.146 28.758 218.147 28.758C221.148 28.758 223.496 29.6172 225.19 31.3357C226.909 33.0299 227.768 35.3777 227.768 38.3789C227.768 41.3802 226.909 43.74 225.19 45.4585C223.496 47.1527 221.148 47.9999 218.147 47.9999ZM218.147 47.2738C219.115 47.2738 219.926 46.5961 220.58 45.2407C221.257 43.8853 221.596 41.598 221.596 38.3789C221.596 35.1599 221.257 32.8726 220.58 31.5172C219.926 30.1618 219.115 29.4841 218.147 29.4841C217.179 29.4841 216.356 30.1618 215.678 31.5172C215.025 32.8726 214.698 35.1599 214.698 38.3789C214.698 41.598 215.025 43.8853 215.678 45.2407C216.356 46.5961 217.179 47.2738 218.147 47.2738Z" fill="#D1AE8B"/>
<path d="M240.306 47.9999C237.305 47.9999 234.945 47.1527 233.227 45.4585C231.532 43.74 230.685 41.3802 230.685 38.3789C230.685 35.3777 231.532 33.0299 233.227 31.3357C234.945 29.6172 237.305 28.758 240.306 28.758C243.307 28.758 245.655 29.6172 247.349 31.3357C249.068 33.0299 249.927 35.3777 249.927 38.3789C249.927 41.3802 249.068 43.74 247.349 45.4585C245.655 47.1527 243.307 47.9999 240.306 47.9999ZM240.306 47.2738C241.274 47.2738 242.085 46.5961 242.739 45.2407C243.416 43.8853 243.755 41.598 243.755 38.3789C243.755 35.1599 243.416 32.8726 242.739 31.5172C242.085 30.1618 241.274 29.4841 240.306 29.4841C239.338 29.4841 238.515 30.1618 237.837 31.5172C237.184 32.8726 236.857 35.1599 236.857 38.3789C236.857 41.598 237.184 43.8853 237.837 45.2407C238.515 46.5961 239.338 47.2738 240.306 47.2738Z" fill="#D1AE8B"/>
<path d="M260.287 47.9999C258.859 47.9999 257.588 47.6368 256.475 46.9107C255.362 46.1604 254.478 45.0712 253.825 43.6432C253.171 42.191 252.844 40.4362 252.844 38.3789C252.844 35.2809 253.558 32.9089 254.986 31.2631C256.439 29.593 258.387 28.758 260.832 28.758C261.993 28.758 263.01 29 263.881 29.4841C264.244 29.6535 264.619 29.8956 265.007 30.2102V23.1307L262.828 22.5861V22.0415H267.548C269.726 22.0415 270.816 23.1307 270.816 25.309V46.3661L272.994 46.9107V47.4553H269.726C268.274 47.4553 267.149 47.0075 266.35 46.112C266.011 45.7489 265.745 45.2891 265.551 44.7324C265.237 45.3375 264.837 45.8821 264.353 46.3661C263.264 47.4553 261.909 47.9999 260.287 47.9999ZM261.739 46.7292C262.635 46.7292 263.446 46.2451 264.172 45.277C264.438 44.9139 264.716 44.4298 265.007 43.8247V31.2994C264.74 31.0331 264.462 30.7911 264.172 30.5733C263.518 30.0892 262.889 29.8472 262.284 29.8472C261.243 29.8472 260.432 30.4523 259.851 31.6624C259.295 32.8726 259.016 35.1114 259.016 38.3789C259.016 41.5012 259.27 43.6795 259.779 44.9139C260.311 46.1241 260.965 46.7292 261.739 46.7292Z" fill="#D1AE8B"/>
<path d="M51.3509 11.6248C50.8435 10.408 50.2025 9.26032 49.4426 8.20149C48.8882 7.42896 48.2695 6.70086 47.5988 6.032C46.0049 4.44252 44.1016 3.16403 41.988 2.28784C39.9486 1.44374 37.7137 0.977264 35.3674 0.977264C33.0211 0.977264 30.7862 1.44374 28.7468 2.28784C26.6332 3.16156 24.7299 4.44252 23.136 6.032C22.4628 6.70333 21.8465 7.42896 21.2921 8.20149C20.5323 9.26032 19.8913 10.408 19.3839 11.6248C18.5375 13.6585 18.0697 15.8897 18.0697 18.2295C18.0697 18.3579 18.0697 18.4862 18.0747 18.6121C18.1192 20.594 18.4954 22.492 19.1562 24.2567C18.6662 22.7659 18.4013 21.1814 18.4013 19.5401C18.4013 19.2192 18.4137 18.9033 18.4335 18.5874C18.4409 18.4689 18.4484 18.3529 18.4583 18.2344C18.6637 15.8601 19.4235 13.6338 20.614 11.6667C21.4877 10.2278 22.5915 8.92712 23.881 7.81399C24.5368 7.24879 25.2397 6.72801 25.9822 6.264C28.6701 4.5832 31.8999 3.60336 35.3699 3.60336C38.8423 3.60336 42.0697 4.5832 44.7575 6.264C45.5025 6.72801 46.2029 7.24632 46.8588 7.81399C48.1482 8.92712 49.2521 10.2278 50.1257 11.6667C51.3187 13.6338 52.076 15.8601 52.2815 18.2344C52.2914 18.3504 52.2988 18.4689 52.3062 18.5874C52.326 18.9033 52.3384 19.2217 52.3384 19.5401C52.3384 21.1814 52.0736 22.7659 51.5835 24.2567C52.2419 22.4944 52.6205 20.594 52.6651 18.6121C52.6676 18.4837 52.67 18.3579 52.67 18.2295C52.67 15.8897 52.2023 13.6585 51.3558 11.6248H51.3509Z" fill="url(#paint0_linear_29_53)"/>
<path d="M19.3536 46.1366C19.2793 46.3366 19.2075 46.5365 19.1407 46.739C19.2149 46.5365 19.2966 46.3341 19.3783 46.1366C19.3709 46.1366 19.361 46.1366 19.3536 46.1366Z" fill="url(#paint1_linear_29_53)"/>
<path d="M52.6602 52.3469C52.6157 50.3773 52.2419 48.4916 51.591 46.7393C52.0736 48.2201 52.336 49.7923 52.336 51.4213C52.336 51.7422 52.3236 52.0581 52.3038 52.374C52.2964 52.4949 52.2865 52.6134 52.2766 52.7319C52.0712 55.1062 51.3114 57.3325 50.1184 59.2996C49.2472 60.736 48.1434 62.0343 46.8564 63.1474C46.198 63.7151 45.4927 64.2358 44.7477 64.7023C42.0648 66.3782 38.8448 67.3556 35.3823 67.358C35.3774 67.358 35.3724 67.358 35.3675 67.358C35.3625 67.358 35.3576 67.358 35.3526 67.358C31.8901 67.3556 28.6702 66.3782 25.9873 64.7023C25.2398 64.2358 24.5345 63.7151 23.8786 63.1474C22.5916 62.0343 21.4878 60.7385 20.6166 59.2996C19.4236 57.335 18.6638 55.1062 18.4584 52.7319C18.4485 52.6134 18.4386 52.4925 18.4311 52.374C18.4113 52.0581 18.399 51.7397 18.399 51.4213C18.399 49.7923 18.6588 48.2226 19.1439 46.7417C18.493 48.4941 18.1193 50.3798 18.0747 52.3493C18.0723 52.4777 18.0698 52.6085 18.0698 52.7393C18.0698 55.0791 18.5376 57.3103 19.384 59.344C19.8889 60.5583 20.5299 61.7035 21.2873 62.7599C21.8441 63.5349 22.4629 64.2655 23.1361 64.9368C24.73 66.5263 26.6333 67.8048 28.7469 68.681C30.7863 69.5251 33.0212 69.9915 35.3675 69.9915C37.7138 69.9915 39.9487 69.5251 41.9881 68.681C44.1017 67.8072 46.005 66.5263 47.5989 64.9368C48.2745 64.263 48.8933 63.5349 49.4477 62.7599C50.205 61.7035 50.8436 60.5583 51.351 59.344C52.1974 57.3103 52.6652 55.0791 52.6652 52.7393C52.6652 52.6085 52.6652 52.4801 52.6602 52.3493V52.3469Z" fill="url(#paint2_linear_29_53)"/>
<path d="M11.443 19.5426C10.2228 20.0486 9.07192 20.6878 8.01016 21.4456C7.23548 21.9984 6.50784 22.6154 5.83464 23.2843C4.24075 24.8738 2.95871 26.7718 2.08009 28.8796C1.23364 30.9133 0.765869 33.1445 0.765869 35.4818C0.765869 37.8191 1.23364 40.0503 2.08009 42.0841C2.95623 44.1919 4.24075 46.0923 5.83464 47.6793C6.50784 48.3507 7.23548 48.9652 8.01016 49.5181C9.07192 50.2758 10.2228 50.915 11.443 51.421C13.4824 52.2651 15.7197 52.7316 18.066 52.7316C18.1947 52.7316 18.3234 52.7316 18.4497 52.7267C20.4371 52.6822 22.3403 52.3071 24.1099 51.6481C22.6151 52.1368 21.0261 52.4009 19.3802 52.4009C19.0585 52.4009 18.7417 52.3885 18.4249 52.3688C18.3061 52.3614 18.1898 52.354 18.071 52.3441C15.69 52.1392 13.4576 51.3815 11.485 50.1944C10.0421 49.3231 8.74028 48.2223 7.62158 46.9364C7.05481 46.2824 6.53259 45.5814 6.06729 44.841C4.38182 42.1606 3.39925 38.9397 3.39925 35.4769C3.39925 32.0141 4.38182 28.7957 6.06729 26.1128C6.53259 25.3699 7.05233 24.6714 7.62158 24.0173C8.7378 22.7315 10.0421 21.6307 11.485 20.7594C13.4551 19.5698 15.69 18.8145 18.071 18.6097C18.1873 18.5998 18.3061 18.5924 18.4249 18.585C18.7417 18.5653 19.0585 18.5529 19.3802 18.5529C21.0261 18.5529 22.6151 18.817 24.1099 19.3057C22.3428 18.6492 20.4371 18.2715 18.4497 18.2271C18.321 18.2246 18.1947 18.2222 18.066 18.2222C15.7197 18.2222 13.4824 18.6887 11.443 19.5328V19.5426Z" fill="url(#paint3_linear_29_53)"/>
<path d="M52.275 18.2371C50.3 18.2815 48.4091 18.6542 46.6519 19.3033C48.1368 18.8221 49.7134 18.5604 51.3469 18.5604C51.6687 18.5604 51.9855 18.5728 52.3022 18.5925C52.4235 18.5999 52.5423 18.6098 52.6611 18.6197C55.0421 18.8245 57.2745 19.5822 59.2471 20.7719C60.6875 21.6407 61.9894 22.7414 63.1056 24.0249C63.6748 24.6814 64.197 25.3848 64.6648 26.1277C66.3453 28.8032 67.3254 32.0142 67.3279 35.4696C67.3279 35.4745 67.3279 35.4795 67.3279 35.4844C67.3279 35.4894 67.3279 35.4943 67.3279 35.4992C67.3254 38.9521 66.3453 42.1632 64.6648 44.8411C64.197 45.5865 63.6748 46.2899 63.1056 46.944C61.9894 48.2274 60.69 49.3282 59.2471 50.197C57.277 51.3866 55.0412 52.1445 52.6602 52.3493C52.5414 52.3592 52.421 52.3689 52.3022 52.3763C51.9855 52.3961 51.6687 52.4084 51.3469 52.4084C49.7134 52.4084 48.1393 52.1492 46.6543 51.6655C48.4116 52.3146 50.3025 52.6873 52.275 52.7317C52.4037 52.7342 52.5349 52.7367 52.6661 52.7367C55.0124 52.7367 57.2498 52.2702 59.2891 51.4261C60.5068 50.9226 61.6552 50.2833 62.7145 49.5281C63.4917 48.9728 64.2243 48.3557 64.8975 47.6819C66.4914 46.0924 67.7734 44.1945 68.652 42.0867C69.4985 40.0529 69.9662 37.8217 69.9662 35.4844C69.9662 33.1471 69.4985 30.9159 68.652 28.8822C67.7759 26.7744 66.4914 24.8739 64.8975 23.2869C64.2218 22.6131 63.4917 21.9961 62.7145 21.4407C61.6552 20.6855 60.5068 20.0487 59.2891 19.5427C57.2498 18.6986 55.0124 18.2322 52.6661 18.2322C52.5349 18.2322 52.4062 18.2322 52.275 18.2371Z" fill="url(#paint4_linear_29_53)"/>
<path d="M29.7522 7.3403C28.5296 6.8368 27.2624 6.47892 25.9754 6.26419C25.0349 6.1087 24.0845 6.02972 23.1316 6.02972C20.8769 6.02972 18.6246 6.46658 16.5085 7.3403C14.4691 8.18193 12.556 9.42834 10.8977 11.082C9.2395 12.7356 7.98963 14.6435 7.14566 16.6772C6.26952 18.7875 5.83144 21.0335 5.83144 23.282C5.83144 24.2297 5.91064 25.18 6.06656 26.1178C6.27941 27.4013 6.64076 28.665 7.14566 29.8842C7.98963 31.9204 9.2395 33.8283 10.9002 35.4819C10.9918 35.5733 11.0834 35.6621 11.1749 35.7485C12.6104 37.1183 14.2241 38.1944 15.9418 38.9768C14.5384 38.2685 13.2267 37.3355 12.0635 36.1755C11.8358 35.9484 11.6204 35.7164 11.4101 35.4795C11.3309 35.3906 11.2541 35.3018 11.1774 35.2129C9.63797 33.389 8.596 31.2787 8.04408 29.0475C7.64065 27.4136 7.49958 25.718 7.62085 24.0199C7.68273 23.1586 7.81143 22.2947 8.00695 21.4407C8.71727 18.3556 10.3037 15.3864 12.7589 12.938C15.2141 10.4896 18.1915 8.90509 21.2853 8.19921C22.1416 8.00422 23.0054 7.87341 23.8691 7.81418C25.5695 7.69324 27.2723 7.83393 28.9107 8.23623C31.1481 8.78662 33.2642 9.82571 35.0907 11.3609C35.1798 11.4374 35.2689 11.5139 35.358 11.5904C35.5956 11.8002 35.8283 12.0174 36.056 12.242C37.2192 13.402 38.1573 14.7101 38.8651 16.1096C38.0805 14.3992 37.0014 12.7875 35.6278 11.356C35.5387 11.2646 35.4496 11.1733 35.3605 11.082C33.7023 9.42834 31.7891 8.17946 29.7472 7.33783L29.7522 7.3403Z" fill="url(#paint5_linear_29_53)"/>
<path d="M59.5514 35.2128C58.1258 33.8528 56.522 32.7816 54.8192 32.0017C56.2101 32.7076 57.5095 33.6356 58.6653 34.7858C58.893 35.0128 59.1083 35.2448 59.3187 35.4818C59.3979 35.5706 59.4771 35.662 59.5538 35.7533C61.0908 37.5772 62.1328 39.6875 62.6847 41.9187C63.0881 43.5501 63.2267 45.2457 63.1055 46.9388C63.0436 47.8052 62.9149 48.669 62.7169 49.5254C62.0066 52.6032 60.4226 55.565 57.9773 58.0084C57.9748 58.0109 57.9699 58.0158 57.9674 58.0183C57.9649 58.0208 57.96 58.0257 57.9575 58.0282C55.5072 60.4692 52.5373 62.0488 49.4509 62.7546C48.5921 62.9521 47.7259 63.0804 46.8572 63.1421C45.1568 63.2631 43.459 63.1249 41.823 62.7226C39.5856 62.1746 37.4695 61.1355 35.6405 59.6004C35.5489 59.5239 35.4574 59.4449 35.3683 59.3659C35.1307 59.1561 34.898 58.9389 34.6703 58.7143C33.5145 57.5617 32.5864 56.2684 31.8785 54.8813C32.6606 56.5794 33.7323 58.1763 35.0985 59.6004C35.1876 59.6942 35.2792 59.7879 35.3707 59.8793C37.029 61.5329 38.9422 62.7818 40.984 63.6234C42.2017 64.1269 43.4664 64.4848 44.7509 64.6971C45.6939 64.8526 46.6493 64.9315 47.6021 64.9315C49.8568 64.9315 52.1091 64.4947 54.2252 63.621C56.2646 62.7793 58.1778 61.5329 59.836 59.8793C61.4942 58.2256 62.7441 56.3177 63.5881 54.284C64.4642 52.1738 64.9023 49.9278 64.9023 47.6793C64.9023 46.7266 64.8231 45.7764 64.6672 44.836C64.4543 43.555 64.0954 42.2938 63.5905 41.0795C62.7466 39.0433 61.4967 37.1354 59.836 35.4818C59.7444 35.3905 59.6504 35.2991 59.5563 35.2103L59.5514 35.2128Z" fill="url(#paint6_linear_29_53)"/>
<path d="M7.14566 41.0819C6.64076 42.3011 6.28189 43.5648 6.06656 44.8482C5.91064 45.7861 5.83144 46.7339 5.83144 47.6841C5.83144 49.9326 6.26952 52.1786 7.14566 54.2888C7.98963 56.3226 9.2395 58.2304 10.8977 59.8841C12.556 61.5377 14.4691 62.7841 16.5085 63.6258C18.6247 64.4995 20.8769 64.9363 23.1316 64.9363C24.082 64.9363 25.0349 64.8574 25.9754 64.7019C27.2624 64.4896 28.5296 64.1293 29.7522 63.6258C31.7941 62.7841 33.7072 61.5377 35.3655 59.8816C35.457 59.7903 35.5461 59.699 35.6328 59.6076C37.0064 58.1761 38.0855 56.5669 38.8701 54.854C38.1597 56.2535 37.2242 57.5616 36.0609 58.7216C35.8332 58.9487 35.6006 59.1634 35.363 59.3732C35.2739 59.4522 35.1848 59.5287 35.0957 59.6052C33.2667 61.1404 31.1506 62.1794 28.9157 62.7298C27.2772 63.1321 25.5769 63.2728 23.8741 63.1519C23.0103 63.0902 22.1441 62.9618 21.2902 62.7669C18.1965 62.0585 15.2191 60.4764 12.7639 58.028C10.3087 55.5797 8.72223 52.6105 8.01191 49.5253C7.81638 48.6714 7.68521 47.81 7.62581 46.9486C7.50454 45.253 7.64561 43.5549 8.04903 41.921C8.60095 39.6898 9.64292 37.5796 11.1824 35.7556C11.2591 35.6668 11.3358 35.5779 11.4125 35.4891C11.6229 35.2521 11.8382 35.0201 12.0659 34.7931C13.2292 33.633 14.5409 32.6976 15.9442 31.9917C14.2291 32.7741 12.6129 33.8502 11.1774 35.22C11.0858 35.3089 10.9943 35.3977 10.9027 35.4866C9.24445 37.1402 7.9921 39.0481 7.14813 41.0843L7.14566 41.0819Z" fill="url(#paint7_linear_29_53)"/>
<path d="M35.0929 11.3631C33.7292 12.7847 32.6551 14.384 31.873 16.0821C32.5808 14.695 33.5114 13.3993 34.6648 12.2466C34.8925 12.0196 35.1251 11.8024 35.3627 11.5951C35.4518 11.5161 35.5434 11.4371 35.635 11.3606C37.464 9.82788 39.5801 8.78879 41.8175 8.2384C43.4535 7.83609 45.1538 7.69788 46.8516 7.81882C47.7203 7.88052 48.5866 8.00886 49.4454 8.20631C52.5317 8.91466 55.5017 10.4943 57.9519 12.9328C57.9544 12.9353 57.9594 12.9402 57.9618 12.9427C57.9643 12.9451 57.9693 12.9501 57.9717 12.9525C60.4195 15.396 62.001 18.3577 62.7113 21.4355C62.9093 22.2919 63.038 23.1558 63.0999 24.0221C63.2212 25.7177 63.0826 27.4109 62.6792 29.0423C62.1297 31.2735 61.0877 33.3837 59.5483 35.2077C59.4716 35.299 59.3924 35.3903 59.3132 35.4792C59.1028 35.7161 58.8875 35.9481 58.6598 36.1752C57.504 37.3278 56.2071 38.2534 54.8161 38.9592C56.5189 38.1793 58.1202 37.1081 59.5483 35.7482C59.6424 35.6594 59.7364 35.568 59.828 35.4767C61.4862 33.8231 62.7386 31.9152 63.5825 29.879C64.0874 28.6647 64.4463 27.4034 64.6592 26.1225C64.8151 25.1821 64.8943 24.2294 64.8943 23.2792C64.8943 21.0307 64.4562 18.7847 63.5801 16.6745C62.7361 14.6407 61.4862 12.7329 59.828 11.0792C58.1697 9.42557 56.2566 8.17916 54.2172 7.33753C52.1011 6.46381 49.8488 6.02695 47.5941 6.02695C46.6388 6.02695 45.6859 6.10593 44.7429 6.26142C43.4584 6.47368 42.1937 6.83156 40.976 7.33506C38.9341 8.17669 37.021 9.4231 35.3627 11.0792C35.2711 11.1705 35.1796 11.2643 35.0905 11.3581L35.0929 11.3631Z" fill="url(#paint8_linear_29_53)"/>
<path d="M33.4192 47.8423C33.4068 47.7633 33.3944 47.6819 33.3821 47.6029C33.3474 47.3388 33.3276 47.0698 33.3276 46.7933C33.3276 46.934 33.3202 47.0722 33.3128 47.2104C33.3004 47.3931 33.2806 47.5733 33.2509 47.751C32.9489 49.6243 31.7807 51.2088 30.1695 52.0825C30.2958 52.122 30.4245 52.1591 30.5532 52.1961C31.0085 52.3244 31.4714 52.4355 31.9391 52.5268C32.9044 51.7518 33.5207 50.5671 33.5207 49.2343C33.5207 50.4486 33.3004 51.6111 32.8994 52.6872C33.689 52.7958 34.4958 52.8551 35.3175 52.8551C36.1887 52.8551 37.045 52.7909 37.8816 52.6675C35.5947 52.0776 33.83 50.1919 33.4192 47.8423Z" fill="#DDB691"/>
<path d="M36.3433 32.831C35.6132 34.7981 35.2246 36.2148 34.8781 38.1251C34.8682 38.1449 34.8583 38.1646 34.8484 38.1844C34.8435 38.1967 34.836 38.209 34.8286 38.2189C34.789 38.1992 34.7494 38.1769 34.7098 38.1572C34.7074 38.1523 34.7049 38.1473 34.7024 38.1399C34.4128 37.5969 34.0911 37.0688 33.7421 36.5579C33.7174 36.5233 33.6951 36.4912 33.6703 36.4567C33.0615 35.5509 32.7076 34.4624 32.7076 33.29C32.7076 30.8096 34.299 28.6993 36.519 27.9194C35.0934 28.1292 33.8485 28.8869 32.9996 29.9704C33.0095 29.8396 33.0169 29.7113 33.0169 29.578C33.0169 27.7121 32.0294 26.0757 30.5469 25.16C30.5494 25.1625 30.5518 25.165 30.5543 25.1674C32.2249 26.984 32.7249 29.457 32.0987 31.666C32.0839 31.7154 32.069 31.7647 32.0542 31.8166C31.9576 32.1473 31.8933 32.4879 31.8611 32.8408C31.8463 33.0062 31.8364 33.174 31.8364 33.3419C31.8364 33.6899 31.871 34.0305 31.9329 34.3612C31.2448 33.6603 30.4875 33.0136 29.6658 32.4361C29.6039 32.3941 29.5396 32.3522 29.4777 32.3102C29.3341 32.2115 29.1906 32.1152 29.0446 32.0214C29.0297 32.0116 29.0149 32.0042 29 31.9943C28.1882 31.4488 27.3938 30.8762 26.6216 30.274C26.5498 30.2222 26.4805 30.1679 26.4137 30.1086C26.0919 29.8322 25.8197 29.4916 25.6217 29.0893C24.9509 27.7368 25.3172 26.1374 26.4087 25.1403C25.592 25.861 25.0747 26.9149 25.0747 28.0872C25.0747 28.45 25.1242 28.8005 25.2182 29.1362C25.3618 29.657 25.6118 30.1358 25.9409 30.5455C24.2332 30.1062 22.4562 30.348 20.9588 31.1502C19.7931 31.7746 18.7981 32.7347 18.1373 33.9762C19.162 32.0905 21.1593 30.8071 23.4585 30.7997C23.466 30.7997 23.4734 30.7997 23.4808 30.7997C23.4957 30.7997 23.513 30.7997 23.5278 30.7997C24.8198 30.8071 26.0944 31.0885 27.2675 31.6117C27.3467 31.6463 27.4235 31.6808 27.5027 31.7178C28.4357 32.167 29.302 32.7742 30.0494 33.527C30.5766 34.0576 31.0493 34.6525 31.4602 35.309C32.4007 36.9602 33.2372 38.6879 33.9599 40.4896C34.3906 41.5608 34.7791 42.6566 35.1256 43.7771C35.2098 44.0486 35.289 44.3251 35.3682 44.599C35.6701 45.4876 36.0834 46.3094 36.5933 47.0499C37.3754 48.1877 38.3753 49.133 39.5187 49.8487C38.7267 49.2194 38.0164 48.4592 37.4249 47.5781C37.3803 47.5139 37.3358 47.4473 37.2937 47.3831C37.2813 47.3633 37.269 47.3461 37.2566 47.3263C37.2343 47.2918 37.2145 47.2547 37.1922 47.2202C37.1502 47.1535 37.1106 47.0844 37.071 47.0178C36.9101 46.7414 36.7641 46.4625 36.6329 46.1762C35.8161 44.4114 35.5488 42.5036 35.7889 40.6698C35.8755 40.0034 36.0315 39.3468 36.2493 38.7101C36.2641 38.6656 36.2814 38.6187 36.2988 38.5743C36.576 37.8043 36.9472 37.0638 37.4076 36.3727C38.1723 35.2275 39.1846 34.2181 40.4295 33.4381C41.6027 32.7026 42.8699 32.2362 44.1568 32.0264C44.2583 32.0091 44.3598 31.9967 44.4588 31.9844C45.0157 31.8906 45.5354 31.7154 46.0131 31.471C46.4215 31.2612 46.7952 31.0046 47.1293 30.7059C48.3767 29.5928 49.0796 27.9194 48.8866 26.1522C49.0796 28.0181 48.1614 29.7656 46.6417 30.7059C46.1096 31.0342 45.5057 31.2637 44.8499 31.3649C44.7088 31.3871 44.5677 31.4019 44.4291 31.4093C44.3994 31.4093 44.3697 31.4143 44.34 31.4143C43.5579 31.4538 42.7709 31.587 41.9888 31.819C41.9838 31.819 41.9789 31.8215 41.9739 31.824C40.9814 32.1202 40.0706 32.557 39.2539 33.1074C39.2489 33.1123 39.2415 33.1148 39.2366 33.1197C39.1623 33.1691 39.093 33.2209 39.0213 33.2728C38.9594 33.3172 38.895 33.3641 38.8332 33.4085C38.7738 33.4529 38.7144 33.4998 38.655 33.5443C38.6005 33.5862 38.5461 33.6282 38.4941 33.6701C38.4792 33.6825 38.4644 33.6948 38.4495 33.7047C37.9422 34.1144 37.4793 34.5389 37.0561 34.9857C37.9224 33.2086 38.4743 31.2045 38.6203 29.3164C38.6723 28.6475 38.6723 27.9663 38.6203 27.2777V27.3073C38.5733 26.673 38.4 26.0806 38.1253 25.55C37.7689 24.8564 37.2417 24.2715 36.6007 23.842C36.0983 23.5039 35.529 23.2645 34.9177 23.146C34.5292 23.0695 34.1233 23.0448 33.7099 23.0745C33.1927 23.1115 32.7001 23.2349 32.2497 23.4249C32.3685 23.3978 32.4898 23.3756 32.6135 23.3583C33.6778 23.2127 34.7024 23.4743 35.5315 24.0197C36.1602 24.4344 36.6774 25.0119 37.014 25.703C37.0635 25.8091 37.1106 25.9177 37.1551 26.0263C37.2813 26.3398 37.3853 26.6606 37.462 26.9864C37.7714 28.2896 37.3234 30.1802 37.0314 30.9725C36.7047 31.8635 36.5339 32.3053 36.3408 32.8285L36.3433 32.831Z" fill="#DDB691"/>
<path d="M42.0683 39.1792C41.9842 39.1767 41.9 39.1718 41.8159 39.1718C41.7317 39.1718 41.6476 39.1743 41.5634 39.1792C39.0587 39.3051 37.0466 41.2993 36.9006 43.7946C36.8956 43.8909 36.8907 43.9896 36.8907 44.0883C36.8907 45.4112 37.4154 46.6132 38.2692 47.4968C37.945 46.9069 37.7371 46.2455 37.6752 45.5322C37.4426 42.8641 39.3533 40.4996 41.9842 40.1368C42.0683 40.1245 42.1549 40.1146 42.2416 40.1072C43.2934 40.0159 44.3082 40.1788 45.2289 40.5441C47.3549 41.3882 48.9636 43.3158 49.3002 45.7025C48.8201 42.1015 45.7858 39.3051 42.0733 39.1817L42.0683 39.1792Z" fill="#DDB691"/>
<path d="M34.7401 44.3967C34.7203 44.3004 34.7005 44.2017 34.6757 44.1054C34.6534 44.0116 34.6262 43.9203 34.599 43.8265C34.2698 42.6986 33.6585 41.7237 32.8616 40.9561C31.2974 39.453 29.0204 38.757 26.7533 39.3098C23.667 40.0626 21.6325 42.8812 21.7637 45.9294C21.7192 43.2835 23.5086 40.8623 26.1939 40.2082C29.2382 39.4653 32.3096 41.2621 33.1635 44.2412C33.1957 44.3868 33.2328 44.5299 33.2699 44.6731C33.557 45.7665 33.9827 46.7908 34.5223 47.7336C35.6558 49.7056 37.2942 51.3124 39.2297 52.4156C39.9524 52.2503 40.6602 52.038 41.3458 51.7863C38.1952 50.525 35.683 47.8545 34.7376 44.3967H34.7401Z" fill="#DDB691"/>
<path d="M25.7866 40.3119C23.0146 40.6821 21.2153 43.1996 21.7672 45.9343C24.5392 45.5641 26.3385 43.0466 25.7866 40.3119Z" fill="#7F9391"/>
<path d="M40.8623 32.2362C41.6691 34.9067 44.4485 36.279 47.0671 35.2991C46.2602 32.6286 43.4808 31.2563 40.8623 32.2362Z" fill="#7F9391"/>
<path d="M45.2565 21.2409C43.9076 22.9118 44.2442 25.2689 46.0039 26.5005C47.3528 24.8295 47.0162 22.4725 45.2565 21.2409Z" fill="#7F9391"/>
<path d="M39.962 41.6795C40.363 43.5256 42.1623 44.6017 43.9839 44.0834C43.583 42.2373 41.7836 41.1612 39.962 41.6795Z" fill="#7F9391"/>
<path d="M39.4681 39.0977C41.2402 38.4338 42.0445 36.5013 41.2649 34.7785C39.4928 35.4424 38.6885 37.375 39.4681 39.0977Z" fill="#7F9391"/>
<path d="M48.4001 40.924C49.0758 42.6887 51.0211 43.4785 52.7412 42.6887C52.0656 40.924 50.1202 40.1342 48.4001 40.924Z" fill="#7F9391"/>
<path d="M41.3946 32.6238C43.7285 31.0861 44.2483 28.038 42.5554 25.8167C40.2215 27.3543 39.7017 30.4025 41.3946 32.6238Z" fill="#7F9391"/>
<path d="M44.4163 31.4246C47.2105 31.2814 49.2103 28.9219 48.8861 26.1502C46.0918 26.2933 44.0921 28.6529 44.4163 31.4246Z" fill="#7F9391"/>
<path d="M38.0869 18.3506C35.6391 20.5028 35.5302 24.1087 37.8443 26.4041C40.2921 24.2519 40.401 20.6459 38.0869 18.3506Z" fill="#7F9391"/>
<path d="M43.8529 39.4504C43.5089 42.775 45.9442 45.5738 49.2929 45.6997C49.6369 42.3751 47.2015 39.5763 43.8529 39.4504Z" fill="#7F9391"/>
<path d="M47.1947 33.3668C48.3901 35.2871 50.8527 35.7757 52.6941 34.4627C51.4987 32.5425 49.036 32.0538 47.1947 33.3668Z" fill="#7F9391"/>
<path d="M43.8529 39.4504C46.3749 40.7807 49.3668 39.7565 50.535 37.1576C48.013 35.8273 45.0211 36.8539 43.8529 39.4504Z" fill="#7F9391"/>
<path d="M32.2521 23.4274C33.0738 26.0929 35.8606 27.4504 38.4742 26.4558C37.6525 23.7902 34.8657 22.4327 32.2521 23.4274Z" fill="#7F9391"/>
<path d="M24.2949 30.8194C21.6616 29.8791 18.9044 31.2908 18.1347 33.9737C20.7681 34.9141 23.5252 33.5023 24.2949 30.8194Z" fill="#7F9391"/>
<path d="M27.7893 33.2283C25.8588 32.4952 23.8021 33.4973 23.1957 35.4669C25.1262 36.1999 27.1829 35.1978 27.7893 33.2283Z" fill="#7F9391"/>
<path d="M31.0875 36.0767C29.5527 35.4077 27.8495 36.1384 27.2802 37.711C28.815 38.38 30.5182 37.6493 31.0875 36.0767Z" fill="#7F9391"/>
<path d="M24.274 29.0999C24.2394 27.1941 22.6674 25.777 20.7612 25.935C20.7959 27.8408 22.3679 29.2579 24.274 29.0999Z" fill="#7F9391"/>
<path d="M22.7634 40.6922C21.3623 40.038 19.768 40.6749 19.2061 42.1117C20.6072 42.7659 22.2015 42.1289 22.7634 40.6922Z" fill="#7F9391"/>
<path d="M30.9776 32.3382C31.552 30.9063 30.8266 29.356 29.3537 28.8771C28.7794 30.3089 29.5047 31.8592 30.9776 32.3382Z" fill="#7F9391"/>
<path d="M31.2049 41.3189C29.1605 40.7759 27.1706 42.0124 26.7598 44.0807C28.8041 44.6237 30.794 43.3872 31.2049 41.3189Z" fill="#7F9391"/>
<path d="M20.929 37.3873C23.4312 36.1384 26.3393 37.2096 27.4234 39.7814C24.9212 41.0303 22.0131 39.9591 20.929 37.3873Z" fill="#7F9391"/>
<path d="M26.4065 25.1353C28.6489 26.3941 29.0053 28.8992 27.2059 30.733C24.9636 29.4743 24.6072 26.9691 26.4065 25.1353Z" fill="#7F9391"/>
<path d="M36.5151 27.9146C36.3418 29.8056 34.6758 31.0968 32.7968 30.8005C32.9701 28.9095 34.6361 27.6184 36.5151 27.9146Z" fill="#7F9391"/>
<path d="M30.5416 25.1553C32.4053 25.5428 33.5017 27.3371 32.9944 29.166C31.1307 28.7785 30.0343 26.9842 30.5416 25.1553Z" fill="#7F9391"/>
<path d="M32.1443 18.4198C31.8251 20.5424 33.3026 22.4083 35.4484 22.586C35.7677 20.4634 34.2901 18.5975 32.1443 18.4198Z" fill="#7F9391"/>
<path d="M23.4123 22.8253C24.5016 22.0477 25.9572 22.3365 26.6652 23.4721C25.5759 24.2497 24.1203 23.9609 23.4123 22.8253Z" fill="#7F9391"/>
<path d="M40.7586 18.997C40.2463 21.0801 41.5481 23.0743 43.6667 23.447C44.179 21.3639 42.8772 19.3697 40.7586 18.997Z" fill="#7F9391"/>
<path d="M30.569 18.7873C28.1163 20.1299 27.3491 23.1238 28.8514 25.4784C31.3041 24.1357 32.0714 21.1419 30.569 18.7873Z" fill="#7F9391"/>
<defs>
<linearGradient id="paint0_linear_29_53" x1="0.765869" y1="35.4844" x2="272.994" y2="35.4844" gradientUnits="userSpaceOnUse">
<stop stop-color="#F3DEBB"/>
<stop offset="0.15" stop-color="#F3DEBB"/>
<stop offset="0.35" stop-color="#E5C5A1"/>
<stop offset="0.61" stop-color="#D5A983"/>
<stop offset="0.72" stop-color="#A57B5D"/>
<stop offset="0.84" stop-color="#D5A983"/>
<stop offset="1" stop-color="#F3DEBB"/>
</linearGradient>
<linearGradient id="paint1_linear_29_53" x1="0.765869" y1="35.4844" x2="272.994" y2="35.4844" gradientUnits="userSpaceOnUse">
<stop stop-color="#F3DEBB"/>
<stop offset="0.15" stop-color="#F3DEBB"/>
<stop offset="0.35" stop-color="#E5C5A1"/>
<stop offset="0.61" stop-color="#D5A983"/>
<stop offset="0.72" stop-color="#A57B5D"/>
<stop offset="0.84" stop-color="#D5A983"/>
<stop offset="1" stop-color="#F3DEBB"/>
</linearGradient>
<linearGradient id="paint2_linear_29_53" x1="0.765869" y1="35.4844" x2="272.994" y2="35.4844" gradientUnits="userSpaceOnUse">
<stop stop-color="#F3DEBB"/>
<stop offset="0.15" stop-color="#F3DEBB"/>
<stop offset="0.35" stop-color="#E5C5A1"/>
<stop offset="0.61" stop-color="#D5A983"/>
<stop offset="0.72" stop-color="#A57B5D"/>
<stop offset="0.84" stop-color="#D5A983"/>
<stop offset="1" stop-color="#F3DEBB"/>
</linearGradient>
<linearGradient id="paint3_linear_29_53" x1="0.765869" y1="35.4844" x2="272.994" y2="35.4844" gradientUnits="userSpaceOnUse">
<stop stop-color="#F3DEBB"/>
<stop offset="0.15" stop-color="#F3DEBB"/>
<stop offset="0.35" stop-color="#E5C5A1"/>
<stop offset="0.61" stop-color="#D5A983"/>
<stop offset="0.72" stop-color="#A57B5D"/>
<stop offset="0.84" stop-color="#D5A983"/>
<stop offset="1" stop-color="#F3DEBB"/>
</linearGradient>
<linearGradient id="paint4_linear_29_53" x1="0.765869" y1="35.4844" x2="272.994" y2="35.4844" gradientUnits="userSpaceOnUse">
<stop stop-color="#F3DEBB"/>
<stop offset="0.15" stop-color="#F3DEBB"/>
<stop offset="0.35" stop-color="#E5C5A1"/>
<stop offset="0.61" stop-color="#D5A983"/>
<stop offset="0.72" stop-color="#A57B5D"/>
<stop offset="0.84" stop-color="#D5A983"/>
<stop offset="1" stop-color="#F3DEBB"/>
</linearGradient>
<linearGradient id="paint5_linear_29_53" x1="0.765869" y1="35.4844" x2="272.994" y2="35.4844" gradientUnits="userSpaceOnUse">
<stop stop-color="#F3DEBB"/>
<stop offset="0.15" stop-color="#F3DEBB"/>
<stop offset="0.35" stop-color="#E5C5A1"/>
<stop offset="0.61" stop-color="#D5A983"/>
<stop offset="0.72" stop-color="#A57B5D"/>
<stop offset="0.84" stop-color="#D5A983"/>
<stop offset="1" stop-color="#F3DEBB"/>
</linearGradient>
<linearGradient id="paint6_linear_29_53" x1="0.765869" y1="35.4844" x2="272.994" y2="35.4844" gradientUnits="userSpaceOnUse">
<stop stop-color="#F3DEBB"/>
<stop offset="0.15" stop-color="#F3DEBB"/>
<stop offset="0.35" stop-color="#E5C5A1"/>
<stop offset="0.61" stop-color="#D5A983"/>
<stop offset="0.72" stop-color="#A57B5D"/>
<stop offset="0.84" stop-color="#D5A983"/>
<stop offset="1" stop-color="#F3DEBB"/>
</linearGradient>
<linearGradient id="paint7_linear_29_53" x1="0.765869" y1="35.4844" x2="272.994" y2="35.4844" gradientUnits="userSpaceOnUse">
<stop stop-color="#F3DEBB"/>
<stop offset="0.15" stop-color="#F3DEBB"/>
<stop offset="0.35" stop-color="#E5C5A1"/>
<stop offset="0.61" stop-color="#D5A983"/>
<stop offset="0.72" stop-color="#A57B5D"/>
<stop offset="0.84" stop-color="#D5A983"/>
<stop offset="1" stop-color="#F3DEBB"/>
</linearGradient>
<linearGradient id="paint8_linear_29_53" x1="0.765869" y1="35.4844" x2="272.994" y2="35.4844" gradientUnits="userSpaceOnUse">
<stop stop-color="#F3DEBB"/>
<stop offset="0.15" stop-color="#F3DEBB"/>
<stop offset="0.35" stop-color="#E5C5A1"/>
<stop offset="0.61" stop-color="#D5A983"/>
<stop offset="0.72" stop-color="#A57B5D"/>
<stop offset="0.84" stop-color="#D5A983"/>
<stop offset="1" stop-color="#F3DEBB"/>
</linearGradient>
</defs>
</svg>
